<svg version="1.2" xmlns="http://www.w3.org/2000/svg" viewBox="0 0 129 242" width="129" height="242">
	<title>phone-svg</title>
	<defs>
		<linearGradient id="g1" x2="1" gradientUnits="userSpaceOnUse" gradientTransform="matrix(0,5.915,-117.353,0,5.844,1)">
			<stop offset="0" stop-color="#454545"/>
			<stop offset=".226" stop-color="#999999"/>
			<stop offset="1" stop-color="#ffffff"/>
		</linearGradient>
		<linearGradient id="g2" x2="1" gradientUnits="userSpaceOnUse" gradientTransform="matrix(-4.576,0,0,-156.562,126.799,42.159)">
			<stop offset="0" stop-color="#ffffff" stop-opacity=".01"/>
			<stop offset=".222" stop-color="#bababa" stop-opacity="1"/>
			<stop offset=".547" stop-color="#ffffff" stop-opacity=".01"/>
			<stop offset="1" stop-color="#ffffff" stop-opacity=".01"/>
		</linearGradient>
		<linearGradient id="g3" x2="1" gradientUnits="userSpaceOnUse" gradientTransform="matrix(4.583,0,0,156.805,2.242,42.034)">
			<stop offset="0" stop-color="#ffffff" stop-opacity=".01"/>
			<stop offset=".222" stop-color="#bababa" stop-opacity="1"/>
			<stop offset=".547" stop-color="#ffffff" stop-opacity=".01"/>
			<stop offset="1" stop-color="#ffffff" stop-opacity=".01"/>
		</linearGradient>
		<clipPath clipPathUnits="userSpaceOnUse" id="cp1">
			<path d="m53.56 6.97h-35.99c-5.37 0-9.28 3.63-9.28 8.38v202.74c0 6.18 6.05 11.66 12.88 11.66h86.74c6.59 0 12.88-5.52 12.88-11.66v-202.2c0-5.68-4.25-8.88-9.28-8.92h-36.56c-0.14 0.03-2.65 1.05-3.71 3.63-1.06 2.59-3.2 4.65-5.53 4.65h-2.72c-1.11 0-4.04-1.07-5.52-4.65-1.48-3.57-3.77-3.6-3.91-3.63z"/>
		</clipPath>
		<linearGradient id="g4" x2="1" gradientUnits="userSpaceOnUse" gradientTransform="matrix(0,221.264,-112.12,0,8.44,7)">
			<stop offset="0" stop-color="#9cb6cd"/>
			<stop offset=".421" stop-color="#9ab3ca"/>
			<stop offset=".717" stop-color="#557496"/>
			<stop offset="1" stop-color="#475178"/>
		</linearGradient>
		<clipPath clipPathUnits="userSpaceOnUse" id="cp2">
			<path d="m11.24 81h105v43h-105z"/>
		</clipPath>
	</defs>
	<style>
		.s0 { fill: #213648 } 
		.s1 { opacity: .4;fill: url(#g1) } 
		.s2 { opacity: .7;fill: url(#g2) } 
		.s3 { opacity: .7;fill: url(#g3) } 
		.s4 { fill: #2e423c } 
		.s5 { fill: #ffffff } 
		.s6 { fill: url(#g4) } 
		.s7 { fill: #fbfcfe } 
		.s8 { fill: #36536b } 
		.s9 { fill: #ba4270 } 
		.s10 { opacity: .5;fill: #36536b } 
	</style>
	<g id="Layer">
		<path id="Layer" fill-rule="evenodd" class="s0" d="m18.3 1.3h92.5c8.9 0 16.1 6.8 16.1 15.2v209c0 8.4-7.2 15.2-16.1 15.2h-92.5c-8.9 0-16.1-6.8-16.1-15.2v-209c0-8.4 7.2-15.2 16.1-15.2z"/>
	</g>
	<path id="Layer" fill-rule="evenodd" class="s1" d="m111.2 1h-93.3q-6.5 0.4-12.1 5.9c2.4-2 6.6-4.8 12.2-4.8 0 0 89.3 0 93 0 5.6 0 9.8 2.8 12.2 4.8q-5.5-5.5-12-5.9z"/>
	<path id="Layer" fill-rule="evenodd" class="s2" d="m124.3 223.1v-205.3c0-5.5-2-7.6-3.2-8.9-1.2-1.3-1.3-1.9 0.5-0.9 1.7 0.9 5.2 3.8 5.2 9.8v205.3c0 6-3.5 8.8-5.2 9.8-1.8 1-1.7 0.3-0.5-1 1.2-1.3 3.2-3.3 3.2-8.8z"/>
	<path id="Layer" fill-rule="evenodd" class="s3" d="m4.7 223.1v-205.3c0-5.5 2.1-7.6 3.3-8.9 1.2-1.3 1.2-1.9-0.5-0.9-1.8 0.9-5.3 3.8-5.3 9.8v205.3c0 6 3.5 8.8 5.3 9.8 1.7 1 1.7 0.3 0.5-1-1.2-1.3-3.3-3.3-3.3-8.8z"/>
	<path id="Layer" fill-rule="evenodd" class="s4" d="m1 50.9c0-0.6 0.5-1.2 1.2-1.2 0.7 0 1.2 0.6 1.2 1.2v28.5c0 0.7-0.5 1.2-1.2 1.2-0.7 0-1.2-0.5-1.2-1.2z"/>
	<path id="Layer" fill-rule="evenodd" class="s4" d="m125.6 76.1c0-0.6 0.5-1.2 1.2-1.2 0.6 0 1.2 0.6 1.2 1.2v20.2c0 0.6-0.6 1.2-1.2 1.2-0.7 0-1.2-0.6-1.2-1.2z"/>
	<path id="Layer" fill-rule="evenodd" class="s5" d="m53.6 7h-36c-5.4 0-9.3 3.6-9.3 8.3v202.8c0 6.2 6 11.7 12.9 11.7h86.7c6.6 0 12.9-5.6 12.9-11.7v-202.2c0-5.7-4.3-8.9-9.3-8.9h-36.5c-0.2 0-2.7 1-3.8 3.6-1 2.6-3.2 4.6-5.5 4.6h-2.7c-1.1 0-4-1-5.5-4.6-1.5-3.6-3.8-3.6-3.9-3.6z"/>
	<g id="Clip-Path" clip-path="url(#cp1)">
		<g id="Layer">
			<path id="Layer" class="s6" d="m8 7h113v223h-113z"/>
			<path id="Layer" fill-rule="evenodd" class="s5" d="m59.8 66.3v1.9h-8.3v-1.7q0-0.8 0.4-1.4 0.3-0.7 0.8-1.1 0.5-0.5 1.1-0.8 0.7-0.4 1.3-0.7 0.6-0.3 1.1-0.6 0.6-0.3 0.9-0.7 0.3-0.4 0.3-0.9 0-0.7-0.5-1.1-0.4-0.4-1.2-0.4-0.9 0-1.5 0.5-0.6 0.5-0.7 1.4h-2.2q0-1 0.5-1.9 0.5-0.8 1.5-1.4 1-0.5 2.4-0.5 1.3 0 2.2 0.5 0.9 0.4 1.4 1.1 0.5 0.8 0.5 1.8 0 0.8-0.3 1.4-0.3 0.6-0.9 1.1-0.5 0.4-1.1 0.7-0.6 0.4-1.2 0.6-0.6 0.3-1.1 0.6-0.5 0.3-0.8 0.6-0.3 0.4-0.3 0.9v0.1zm-10.8-9.2v11.1h-2.3v-8.3h-2v-1.3q1 0 1.6-0.2 0.5-0.1 0.8-0.5 0.3-0.3 0.4-0.8zm12.3 5.8v-2.4h2.4v2.4zm2.5 2.9v2.4h-2.5v-2.4zm6.8 2.4v-2.5h-5.2v-1.8l5.1-6.8h2.2v6.8h1.8v1.8h-1.8v2.5zm-3-4.3h3.1v-4.1zm10.2 4.1q-0.9-0.4-1.5-1.1-0.6-0.8-0.6-1.7h2.1q0.2 0.6 0.6 1 0.5 0.4 1.3 0.4 0.8 0 1.4-0.4 0.6-0.3 0.9-1.2 0.3-0.8 0.2-2.1-0.2 0.4-0.6 0.7-0.4 0.3-0.9 0.5-0.5 0.1-1.1 0.1-1.2 0-2.1-0.4-0.8-0.4-1.3-1.2-0.5-0.8-0.5-1.9 0-1.1 0.5-1.9 0.5-0.9 1.5-1.3 0.9-0.5 2.2-0.5 1.4 0 2.4 0.6 1.1 0.7 1.6 1.9 0.6 1.3 0.6 2.9 0 2-0.6 3.4-0.6 1.3-1.6 1.9-1.1 0.7-2.6 0.7-1 0-1.9-0.4zm0.8-6q0.5 0.5 1.3 0.5 0.5 0 1-0.2 0.4-0.3 0.7-0.6 0.3-0.3 0.3-0.7 0-0.7-0.3-1.2-0.2-0.6-0.6-0.8-0.5-0.3-1.1-0.3-0.5 0-0.9 0.2-0.4 0.3-0.7 0.7-0.2 0.4-0.2 1 0 0.9 0.5 1.4z"/>
		</g>
	</g>
	<g id="Clip-Path" clip-path="url(#cp2)">
		<g id="Layer">
			<g id="Layer">
				<path id="Layer" class="s7" d="m11.2 83c0-1.1 0.9-2 2-2h101c1.2 0 2 0.9 2 2v38.6c0 1.1-0.8 2-2 2h-101c-1.1 0-2-0.9-2-2z"/>
			</g>
			<path id="Layer" fill-rule="evenodd" class="s8" d="m19.1 98.3v-0.4h2.7v0.4h-1.1v3.2h-0.4v-3.2zm3.2 3.2v-3.7h0.5v1.5q0-0.1 0.1-0.2 0.2-0.1 0.3-0.2 0.2 0 0.4 0 0.2 0 0.4 0.1 0.2 0.1 0.4 0.2 0.1 0.2 0.1 0.5v1.8h-0.5v-1.8q0-0.2-0.1-0.3-0.2-0.1-0.5-0.1-0.1 0-0.3 0-0.1 0.1-0.2 0.2-0.1 0.1-0.1 0.3v1.7zm3.2-1.2q0 0.3 0.1 0.5 0.1 0.2 0.2 0.3 0.2 0.1 0.4 0.1 0.3 0 0.5-0.1 0.1-0.1 0.2-0.4h0.4q0 0.3-0.2 0.5-0.1 0.2-0.4 0.3-0.2 0.1-0.5 0.1-0.3 0-0.6-0.2-0.3-0.2-0.4-0.5-0.2-0.3-0.2-0.7 0-0.4 0.2-0.7 0.1-0.3 0.4-0.5 0.2-0.1 0.6-0.1 0.4 0 0.6 0.1 0.3 0.2 0.4 0.5 0.1 0.3 0.1 0.6v0.2zm0-0.3h1.4q0-0.2 0-0.4-0.1-0.2-0.3-0.3-0.1-0.1-0.3-0.1-0.3 0-0.4 0.1-0.2 0.1-0.3 0.3-0.1 0.2-0.1 0.4zm3.6 2.3v-3.4h0.5v0.5q0.1-0.1 0.1-0.2 0.1-0.1 0.2-0.2 0.1 0 0.2-0.1 0.2 0 0.4 0 0.3 0 0.5 0.1 0.2 0.1 0.4 0.4 0.1 0.3 0.1 0.8 0 0.4-0.1 0.7-0.1 0.3-0.4 0.5-0.2 0.2-0.6 0.2-0.1-0.1-0.3-0.1-0.1 0-0.2-0.1-0.1-0.1-0.2-0.2 0-0.1-0.1-0.2v1.3zm1.2-1.1q0.3 0 0.5-0.3 0.2-0.2 0.2-0.7 0-0.5-0.2-0.7-0.1-0.3-0.5-0.3-0.4 0-0.5 0.3-0.2 0.3-0.2 0.7 0 0.3 0.1 0.5 0 0.2 0.2 0.4 0.2 0.1 0.4 0.1zm2.5 0.4q-0.3 0-0.5-0.1-0.2-0.1-0.3-0.3-0.1-0.2-0.1-0.4 0-0.4 0.3-0.6 0.3-0.2 1-0.3h0.4v-0.2q0-0.2-0.1-0.4-0.2-0.1-0.5-0.1-0.2 0-0.3 0.1-0.2 0.1-0.3 0.3h-0.4q0-0.2 0.2-0.4 0.1-0.2 0.3-0.2 0.3-0.1 0.6-0.1 0.3 0 0.5 0.1 0.3 0.1 0.4 0.2 0.1 0.2 0.1 0.5v1.8h-0.4v-0.5q-0.2 0.3-0.4 0.4-0.3 0.2-0.5 0.2zm0.1-0.4q0.1 0 0.3 0 0.1-0.1 0.2-0.2 0.1 0 0.2-0.1 0-0.1 0-0.2v-0.5h-0.4q-0.2 0-0.4 0.1-0.2 0-0.3 0.1-0.1 0.2-0.1 0.4 0 0.2 0.1 0.3 0.2 0.1 0.4 0.1zm2.1 1.1q-0.2 0-0.3 0-0.1 0-0.1 0v-0.3h0.3q0.2 0 0.2-0.1 0.1 0 0.2 0 0.1-0.1 0.1-0.1 0-0.1 0-0.1l0.1-0.3-1-2.5h0.5l0.7 2 0.8-2h0.5l-1.1 2.8q-0.1 0.2-0.3 0.4-0.1 0.1-0.2 0.2-0.2 0-0.4 0zm2.5-0.8v-2.6h0.4v0.4q0.1-0.2 0.3-0.3 0.2-0.1 0.5-0.1 0.1 0 0.3 0 0.1 0.1 0.2 0.2 0.2 0 0.2 0.2 0.1-0.2 0.4-0.3 0.2-0.1 0.4-0.1 0.1 0 0.3 0 0.1 0 0.3 0.2 0.1 0.1 0.2 0.2 0.1 0.2 0.1 0.5v1.7h-0.5v-1.6q0-0.3-0.1-0.4-0.1-0.1-0.2-0.2-0.1 0-0.2 0-0.2 0-0.3 0-0.1 0.1-0.2 0.2-0.1 0.1-0.1 0.3v1.7h-0.5v-1.8q0-0.1-0.1-0.2 0-0.1-0.2-0.2-0.1 0-0.2 0-0.1 0-0.3 0-0.1 0.1-0.2 0.2-0.1 0.1-0.1 0.3v1.7zm4.7-1.2q0 0.3 0 0.5 0.1 0.2 0.3 0.3 0.2 0.1 0.4 0.1 0.3 0 0.4-0.1 0.2-0.1 0.3-0.4h0.4q0 0.3-0.2 0.5-0.2 0.2-0.4 0.3-0.2 0.1-0.5 0.1-0.3 0-0.6-0.2-0.3-0.2-0.4-0.5-0.2-0.3-0.2-0.7 0-0.4 0.1-0.7 0.2-0.3 0.4-0.5 0.3-0.1 0.7-0.1 0.4 0 0.6 0.1 0.3 0.2 0.4 0.5 0.1 0.3 0.1 0.6v0.2zm0-0.3h1.4q0-0.2 0-0.4-0.1-0.2-0.3-0.3-0.1-0.1-0.4-0.1-0.2 0-0.4 0.1-0.1 0.1-0.2 0.3-0.1 0.2-0.1 0.4zm2.5 1.5v-2.6h0.5v0.4q0-0.1 0.1-0.2 0.1-0.1 0.3-0.2 0.2 0 0.4 0 0.2 0 0.4 0.1 0.2 0.1 0.3 0.3 0.2 0.2 0.2 0.5v1.7h-0.5v-1.6q0-0.3-0.2-0.5-0.1-0.1-0.4-0.1-0.1 0-0.3 0-0.1 0.1-0.2 0.2-0.1 0.1-0.1 0.3v1.7zm4-2.2h-0.5v1.6q0 0.1 0 0.2 0 0 0.1 0 0.1 0.1 0.2 0.1h0.3v0.3q-0.1 0-0.2 0-0.1 0-0.2 0-0.3 0-0.4-0.1-0.2 0-0.2-0.2-0.1-0.1-0.1-0.3v-1.6h-0.4v-0.4h0.4l0.1-0.7h0.4v0.7h0.5zm1.9 2.3v-3.8h0.4v1.6q0.1-0.2 0.2-0.2 0.1-0.1 0.3-0.2 0.1-0.1 0.3-0.1 0.3 0 0.5 0.1 0.2 0.1 0.3 0.3 0.1 0.2 0.1 0.4v1.9h-0.4v-1.8q0-0.2-0.2-0.4-0.2-0.1-0.4-0.1-0.2 0-0.3 0.1-0.2 0-0.3 0.1-0.1 0.2-0.1 0.3v1.8zm3.6 0q-0.2 0-0.4-0.1-0.2-0.1-0.3-0.2-0.1-0.2-0.1-0.4 0-0.5 0.3-0.7 0.3-0.2 0.9-0.2h0.5v-0.2q0-0.3-0.2-0.4-0.1-0.1-0.4-0.1-0.2 0-0.4 0.1-0.2 0.1-0.2 0.3h-0.4q0-0.2 0.1-0.4 0.1-0.2 0.4-0.3 0.2-0.1 0.5-0.1 0.4 0 0.6 0.1 0.2 0.1 0.3 0.3 0.1 0.2 0.1 0.5v1.8h-0.4v-0.5q-0.2 0.3-0.4 0.4-0.2 0.1-0.5 0.1zm0.1-0.3q0.2 0 0.3-0.1 0.1 0 0.2-0.1 0.2-0.1 0.2-0.2 0.1-0.1 0.1-0.2v-0.4h-0.4q-0.3 0-0.5 0-0.2 0.1-0.3 0.2-0.1 0.1-0.1 0.3 0 0.2 0.2 0.4 0.1 0.1 0.3 0.1zm2.9 0.3q-0.3 0-0.5-0.1-0.2-0.1-0.4-0.2-0.1-0.2-0.2-0.5h0.4q0.1 0.2 0.2 0.3 0 0.1 0.2 0.1 0.1 0.1 0.3 0.1 0.2 0 0.4-0.1 0.2-0.1 0.2-0.3 0-0.2-0.1-0.3-0.1 0-0.3-0.1l-0.5-0.1q-0.3-0.1-0.5-0.3-0.2-0.1-0.2-0.4 0-0.2 0.1-0.4 0.1-0.2 0.3-0.3 0.3-0.1 0.6-0.1 0.4 0 0.7 0.2 0.2 0.2 0.2 0.6h-0.4q0-0.2-0.1-0.3-0.2-0.1-0.4-0.1-0.3 0-0.4 0.1-0.2 0.1-0.2 0.3 0 0.1 0.1 0.2 0.1 0.1 0.4 0.1l0.5 0.1q0.2 0.1 0.3 0.2 0.1 0.1 0.2 0.1 0 0.1 0.1 0.2 0 0.1 0 0.2 0 0.3-0.1 0.5-0.2 0.1-0.4 0.2-0.2 0.1-0.5 0.1zm4 0q-0.2 0-0.3 0-0.2-0.1-0.3-0.2-0.1-0.1-0.2-0.2 0-0.1 0-0.2l-0.1 0.6h-0.3v-3.8h0.4v1.6q0.1-0.1 0.1-0.2 0.1 0 0.2-0.1 0.1-0.1 0.2-0.1 0.2-0.1 0.4-0.1 0.5 0 0.7 0.4 0.3 0.3 0.3 1 0 0.4-0.1 0.7-0.1 0.3-0.4 0.4-0.2 0.2-0.6 0.2zm0-0.3q0.3 0 0.5-0.3 0.2-0.2 0.2-0.8 0-0.4-0.2-0.7-0.2-0.2-0.6-0.2-0.2 0-0.4 0.1-0.1 0.1-0.2 0.3-0.1 0.2-0.1 0.5 0 0.6 0.2 0.8 0.2 0.3 0.6 0.3zm2.1-0.9q0 0.2 0 0.4 0.1 0.2 0.3 0.3 0.2 0.2 0.4 0.2 0.3 0 0.4-0.2 0.2-0.1 0.3-0.3h0.4q0 0.3-0.2 0.4-0.2 0.2-0.4 0.3-0.2 0.1-0.5 0.1-0.3 0-0.6-0.1-0.3-0.2-0.4-0.5-0.2-0.3-0.2-0.7 0-0.4 0.1-0.7 0.2-0.3 0.4-0.5 0.3-0.2 0.7-0.2 0.4 0 0.6 0.2 0.3 0.1 0.4 0.4 0.1 0.3 0.1 0.7v0.2zm0-0.3h1.4q0-0.3 0-0.4-0.1-0.2-0.3-0.3-0.1-0.1-0.4-0.1-0.2 0-0.4 0.1-0.1 0.1-0.2 0.3-0.1 0.2-0.1 0.4zm2.8 0.3q0 0.2 0.1 0.4 0.1 0.2 0.3 0.3 0.1 0.2 0.4 0.2 0.2 0 0.4-0.2 0.2-0.1 0.2-0.3h0.5q-0.1 0.3-0.2 0.4-0.2 0.2-0.4 0.3-0.3 0.1-0.5 0.1-0.4 0-0.6-0.1-0.3-0.2-0.5-0.5-0.1-0.3-0.1-0.7 0-0.4 0.1-0.7 0.1-0.3 0.4-0.5 0.3-0.2 0.7-0.2 0.3 0 0.6 0.2 0.2 0.1 0.4 0.4 0.1 0.3 0.1 0.7v0.2zm0-0.3h1.4q0-0.3-0.1-0.4-0.1-0.2-0.2-0.3-0.2-0.1-0.4-0.1-0.2 0-0.4 0.1-0.2 0.1-0.2 0.3-0.1 0.2-0.1 0.4zm2.5 1.5v-2.6h0.4v0.3q0.1-0.1 0.2-0.2 0.1 0 0.3-0.1 0.1-0.1 0.3-0.1 0.3 0 0.5 0.1 0.2 0.1 0.3 0.3 0.1 0.2 0.1 0.6v1.7h-0.4v-1.7q0-0.3-0.2-0.4-0.1-0.2-0.4-0.2-0.2 0-0.3 0.1-0.2 0-0.3 0.1-0.1 0.2-0.1 0.3v1.8zm4.1 0.8v-3.4h0.4v0.4q0.1-0.1 0.2-0.1 0-0.1 0.1-0.2 0.1-0.1 0.3-0.1 0.1-0.1 0.3-0.1 0.3 0 0.5 0.2 0.3 0.1 0.4 0.4 0.1 0.3 0.1 0.7 0 0.5-0.1 0.8-0.1 0.3-0.4 0.4-0.2 0.2-0.5 0.2-0.2 0-0.4 0-0.1-0.1-0.2-0.2-0.1 0-0.2-0.1 0-0.1-0.1-0.2v1.3zm1.2-1.2q0.4 0 0.6-0.2 0.2-0.2 0.2-0.8 0-0.4-0.2-0.7-0.2-0.2-0.6-0.2-0.3 0-0.5 0.3-0.2 0.2-0.2 0.6 0 0.3 0.1 0.6 0.1 0.2 0.2 0.3 0.2 0.2 0.4 0.1zm1.8 0.4v-2.6h0.4v0.5q0.1-0.2 0.2-0.3 0.1-0.2 0.3-0.2 0.2-0.1 0.3-0.1 0.1 0 0.1 0 0.1 0 0.1 0.1v0.4q0 0-0.1 0 0 0-0.1 0-0.1 0-0.3 0-0.1 0-0.2 0.1-0.1 0.1-0.2 0.2 0 0.1 0 0.3v1.6zm2.9 0q-0.4 0-0.6-0.1-0.3-0.2-0.5-0.5-0.1-0.3-0.1-0.7 0-0.4 0.1-0.7 0.2-0.3 0.4-0.5 0.3-0.2 0.7-0.2 0.3 0 0.6 0.2 0.3 0.1 0.4 0.4 0.2 0.3 0.2 0.8 0 0.4-0.2 0.7-0.1 0.3-0.4 0.4-0.2 0.2-0.6 0.2zm0-0.4q0.2 0 0.4-0.1 0.1-0.1 0.2-0.3 0.1-0.2 0.1-0.5 0-0.3-0.1-0.5-0.1-0.3-0.2-0.4-0.2-0.1-0.4-0.1-0.3 0-0.4 0.1-0.2 0.1-0.3 0.3-0.1 0.3-0.1 0.6 0 0.2 0.1 0.5 0.1 0.2 0.3 0.3 0.1 0.1 0.4 0.1zm2.8-2.3q0.3 0 0.5 0.1 0.2 0.1 0.3 0.3 0.2 0.2 0.2 0.5h-0.4q0-0.1-0.1-0.3-0.1-0.1-0.2-0.1-0.1-0.1-0.3-0.1-0.3 0-0.6 0.2-0.2 0.3-0.2 0.8 0 0.4 0.2 0.7 0.2 0.3 0.6 0.3 0.2 0 0.3-0.1 0.1-0.1 0.2-0.2 0.1-0.1 0.1-0.2h0.4q0 0.2-0.2 0.4-0.1 0.2-0.3 0.3-0.2 0.1-0.5 0.1-0.4 0-0.6-0.1-0.3-0.2-0.5-0.5-0.1-0.3-0.1-0.7 0-0.4 0.1-0.7 0.2-0.3 0.4-0.5 0.3-0.2 0.7-0.2zm2 1.5q0 0.2 0.1 0.4 0 0.2 0.2 0.3 0.2 0.2 0.4 0.2 0.3 0 0.5-0.2 0.1-0.1 0.2-0.3h0.4q0 0.3-0.2 0.4-0.2 0.2-0.4 0.3-0.2 0.1-0.5 0.1-0.3 0-0.6-0.1-0.3-0.2-0.4-0.5-0.2-0.3-0.2-0.7 0-0.4 0.2-0.7 0.1-0.3 0.4-0.5 0.2-0.2 0.6-0.2 0.4 0 0.6 0.2 0.3 0.1 0.4 0.4 0.1 0.3 0.1 0.7v0.2zm0-0.3h1.4q0-0.3 0-0.4-0.1-0.2-0.3-0.3-0.1-0.1-0.3-0.1-0.3 0-0.5 0.1-0.1 0.1-0.2 0.3-0.1 0.2-0.1 0.4zm3.4 1.5q-0.2 0-0.5-0.1-0.2-0.1-0.4-0.2-0.1-0.2-0.2-0.5h0.5q0 0.2 0.1 0.3 0.1 0.1 0.2 0.1 0.2 0.1 0.3 0.1 0.3 0 0.4-0.1 0.2-0.1 0.2-0.3 0-0.2-0.1-0.3-0.1 0-0.2-0.1l-0.6-0.1q-0.3-0.1-0.5-0.3-0.2-0.1-0.2-0.4 0-0.2 0.1-0.4 0.2-0.2 0.4-0.3 0.2-0.1 0.5-0.1 0.4 0 0.7 0.2 0.3 0.2 0.3 0.6h-0.4q-0.1-0.2-0.2-0.3-0.1-0.1-0.4-0.1-0.2 0-0.4 0.1-0.1 0.1-0.1 0.3 0 0.1 0.1 0.2 0.1 0.1 0.3 0.1l0.5 0.1q0.2 0.1 0.3 0.2 0.1 0.1 0.2 0.1 0.1 0.1 0.1 0.2 0 0.1 0 0.2 0 0.3-0.1 0.5-0.1 0.1-0.3 0.2-0.3 0.1-0.6 0.1zm2.5 0q-0.2 0-0.5-0.1-0.2-0.1-0.4-0.2-0.1-0.2-0.1-0.5h0.4q0 0.2 0.1 0.3 0.1 0.1 0.2 0.1 0.2 0.1 0.3 0.1 0.3 0 0.5-0.1 0.1-0.1 0.1-0.3 0-0.2-0.1-0.3-0.1 0-0.2-0.1l-0.6-0.1q-0.3-0.1-0.5-0.3-0.2-0.1-0.2-0.4 0-0.2 0.2-0.4 0.1-0.2 0.3-0.3 0.2-0.1 0.5-0.1 0.5 0 0.7 0.2 0.3 0.2 0.3 0.6h-0.4q-0.1-0.2-0.2-0.3-0.1-0.1-0.4-0.1-0.2 0-0.4 0.1-0.1 0.1-0.1 0.3 0 0.1 0.1 0.2 0.1 0.1 0.3 0.1l0.5 0.1q0.2 0.1 0.3 0.2 0.1 0.1 0.2 0.1 0.1 0.1 0.1 0.2 0 0.1 0 0.2 0 0.3-0.1 0.5-0.1 0.1-0.3 0.2-0.2 0.1-0.6 0.1zm2-1.2q0 0.2 0.1 0.4 0.1 0.2 0.2 0.3 0.2 0.2 0.5 0.2 0.2 0 0.4-0.2 0.2-0.1 0.2-0.3h0.4q0 0.3-0.2 0.4-0.1 0.2-0.4 0.3-0.2 0.1-0.4 0.1-0.4 0-0.7-0.1-0.3-0.2-0.4-0.5-0.2-0.3-0.2-0.7 0-0.4 0.2-0.7 0.1-0.3 0.4-0.5 0.3-0.2 0.6-0.2 0.4 0 0.6 0.2 0.3 0.1 0.4 0.4 0.2 0.3 0.2 0.7v0.2zm0-0.3h1.4q0-0.3-0.1-0.4-0.1-0.2-0.2-0.3-0.2-0.1-0.4-0.1-0.3 0-0.4 0.1-0.2 0.1-0.3 0.3 0 0.2 0 0.4zm3.4 1.5q-0.5 0-0.8-0.3-0.3-0.4-0.3-1 0-0.4 0.1-0.7 0.1-0.3 0.4-0.5 0.2-0.2 0.5-0.2 0.2 0 0.4 0.1 0.1 0 0.2 0.1 0.1 0.1 0.2 0.1 0.1 0.1 0.1 0.2v-1.6h0.5v3.8h-0.4v-0.6q-0.1 0.1-0.1 0.2-0.1 0.1-0.2 0.2-0.1 0.1-0.2 0.2-0.2 0-0.4 0zm0.1-0.3q0.4 0 0.5-0.3 0.2-0.2 0.2-0.8 0-0.3-0.1-0.5-0.1-0.2-0.2-0.3-0.2-0.1-0.4-0.1-0.3 0-0.5 0.2-0.2 0.2-0.2 0.7 0 0.5 0.1 0.8 0.2 0.3 0.6 0.3zm1.8 0.3v-0.6h0.6v0.6zm-77.4 3.8v-0.5h2.8v0.5h-1.1v3.2h-0.5v-3.2zm3.2 3.2v-3.8h0.5v1.6q0.1-0.2 0.2-0.2 0.1-0.1 0.2-0.2 0.2-0.1 0.4-0.1 0.3 0 0.5 0.1 0.2 0.1 0.3 0.3 0.1 0.2 0.1 0.4v1.9h-0.5v-1.8q0-0.2-0.1-0.4-0.2-0.1-0.4-0.1-0.2 0-0.4 0.1-0.1 0-0.2 0.1-0.1 0.2-0.1 0.3v1.8zm3.2-1.2q0 0.2 0.1 0.4 0.1 0.2 0.2 0.3 0.2 0.2 0.5 0.2 0.2 0 0.4-0.2 0.2-0.1 0.2-0.3h0.5q-0.1 0.3-0.3 0.4-0.1 0.2-0.4 0.3-0.2 0.1-0.4 0.1-0.4 0-0.7-0.1-0.2-0.2-0.4-0.5-0.2-0.3-0.2-0.7 0-0.4 0.2-0.7 0.1-0.3 0.4-0.5 0.3-0.2 0.6-0.2 0.4 0 0.7 0.2 0.2 0.1 0.3 0.4 0.2 0.3 0.2 0.7v0.2zm0-0.3h1.4q0-0.3-0.1-0.4-0.1-0.2-0.2-0.3-0.2-0.1-0.4-0.1-0.3 0-0.4 0.1-0.2 0.1-0.3 0.3 0 0.2 0 0.4zm4.9-0.8h-0.6v1.6q0 0.2 0 0.2 0.1 0.1 0.1 0.1 0.1 0 0.2 0h0.3v0.3q0 0-0.1 0.1-0.1 0-0.3 0-0.3 0-0.4-0.1-0.1-0.1-0.2-0.2-0.1-0.2-0.1-0.4v-1.6h-0.4v-0.3h0.4l0.2-0.8h0.3v0.8h0.6zm1.6 2.3q-0.3 0-0.6-0.2-0.3-0.1-0.4-0.4-0.2-0.3-0.2-0.8 0-0.4 0.2-0.7 0.1-0.3 0.4-0.4 0.2-0.2 0.6-0.2 0.4 0 0.6 0.1 0.3 0.2 0.4 0.5 0.2 0.3 0.2 0.7 0 0.4-0.2 0.7-0.1 0.3-0.3 0.5-0.3 0.2-0.7 0.2zm0-0.4q0.2 0 0.4-0.1 0.2-0.1 0.2-0.4 0.1-0.2 0.1-0.5 0-0.2 0-0.5-0.1-0.2-0.3-0.3-0.1-0.2-0.4-0.2-0.2 0-0.4 0.2-0.2 0.1-0.2 0.3-0.1 0.2-0.1 0.5 0 0.3 0.1 0.5 0 0.2 0.2 0.4 0.2 0.1 0.4 0.1zm3-1.9h-0.6v1.6q0 0.1 0.1 0.2 0 0 0.1 0.1 0 0 0.2 0h0.2v0.3q0 0-0.1 0-0.1 0-0.2 0-0.3 0-0.5 0-0.1-0.1-0.2-0.3 0-0.1 0-0.3v-1.6h-0.4v-0.4h0.4l0.1-0.7h0.3v0.7h0.6zm1.4 2.3q-0.3 0-0.5-0.1-0.2 0-0.3-0.2-0.1-0.2-0.1-0.4 0-0.5 0.3-0.7 0.3-0.2 1-0.2h0.5v-0.2q0-0.2-0.2-0.4-0.1-0.1-0.4-0.1-0.3 0-0.4 0.1-0.2 0.1-0.2 0.3h-0.5q0.1-0.2 0.2-0.4 0.1-0.2 0.3-0.3 0.3-0.1 0.6-0.1 0.3 0 0.5 0.1 0.3 0.1 0.4 0.3 0.1 0.2 0.1 0.5v1.8h-0.4v-0.5q-0.2 0.3-0.4 0.4-0.2 0.1-0.5 0.1zm0.1-0.3q0.1 0 0.3-0.1 0.1 0 0.2-0.1 0.1-0.1 0.2-0.2 0-0.1 0.1-0.2v-0.4h-0.4q-0.3 0-0.5 0.1-0.2 0-0.3 0.1-0.1 0.1-0.1 0.3 0 0.3 0.1 0.4 0.2 0.1 0.4 0.1zm2.6 0.3q-0.2 0-0.3 0-0.1-0.1-0.2-0.2-0.1-0.1-0.1-0.2 0-0.2 0-0.3v-3h0.4v3q0 0.2 0.1 0.3 0.1 0.1 0.2 0.1h0.2v0.3q-0.1 0-0.1 0-0.1 0-0.2 0zm2.7 0q-0.2 0-0.4-0.1-0.2 0-0.3-0.2-0.1-0.2-0.1-0.4 0-0.5 0.3-0.7 0.3-0.2 1-0.2h0.4v-0.2q0-0.2-0.1-0.4-0.2-0.1-0.5-0.1-0.2 0-0.4 0.1-0.1 0.1-0.2 0.3h-0.4q0-0.2 0.2-0.4 0.1-0.2 0.3-0.3 0.2-0.1 0.6-0.1 0.3 0 0.5 0.1 0.2 0.1 0.3 0.3 0.2 0.2 0.2 0.5v1.8h-0.4l-0.1-0.5q-0.1 0.3-0.4 0.4-0.2 0.1-0.5 0.1zm0.2-0.3q0.1 0 0.2-0.1 0.2 0 0.3-0.1 0.1-0.1 0.1-0.2 0.1-0.1 0.1-0.2v-0.4h-0.4q-0.3 0-0.5 0.1-0.2 0-0.3 0.1-0.1 0.1-0.1 0.3 0 0.3 0.2 0.4 0.1 0.1 0.4 0.1zm1.9 0.3v-2.6h0.5v0.4q0.1-0.2 0.3-0.3 0.2-0.2 0.5-0.2 0.1 0 0.3 0.1 0.1 0 0.2 0.1 0.2 0.1 0.2 0.3 0.1-0.2 0.3-0.3 0.3-0.2 0.5-0.2 0.1 0 0.3 0.1 0.1 0 0.3 0.1 0.1 0.1 0.2 0.3 0.1 0.2 0.1 0.5v1.7h-0.5v-1.7q0-0.2-0.1-0.3-0.1-0.2-0.2-0.2-0.1-0.1-0.2-0.1-0.2 0-0.3 0.1-0.1 0-0.2 0.1-0.1 0.2-0.1 0.4v1.7h-0.5v-1.8q0-0.2-0.1-0.3 0-0.1-0.2-0.1-0.1-0.1-0.2-0.1-0.1 0-0.3 0.1-0.1 0-0.2 0.2-0.1 0.1-0.1 0.3v1.7zm5.4 0q-0.4 0-0.7-0.1-0.2-0.2-0.4-0.5-0.1-0.3-0.1-0.7 0-0.4 0.1-0.7 0.2-0.3 0.4-0.5 0.3-0.2 0.7-0.2 0.3 0 0.6 0.2 0.2 0.2 0.4 0.5 0.1 0.3 0.1 0.7 0 0.4-0.1 0.7-0.1 0.3-0.4 0.5-0.3 0.1-0.6 0.1zm0-0.3q0.2 0 0.4-0.2 0.1-0.1 0.2-0.3 0.1-0.2 0.1-0.5 0-0.3-0.1-0.5-0.1-0.2-0.2-0.4-0.2-0.1-0.4-0.1-0.3 0-0.4 0.1-0.2 0.1-0.3 0.4-0.1 0.2-0.1 0.5 0 0.3 0.1 0.5 0.1 0.2 0.2 0.3 0.2 0.2 0.5 0.2zm2.6 0.3q-0.2 0-0.3 0-0.2-0.1-0.3-0.2-0.2-0.1-0.3-0.3 0-0.1 0-0.4v-1.7h0.4v1.7q0 0.3 0.2 0.4 0.1 0.2 0.4 0.2 0.3 0 0.5-0.2 0.2-0.1 0.2-0.4v-1.7h0.4v2.6h-0.3l-0.1-0.5q0 0.2-0.1 0.3-0.2 0.1-0.3 0.2-0.2 0-0.4 0zm2 0v-2.6h0.4v0.4q0.1-0.1 0.2-0.2 0.1-0.1 0.3-0.2 0.1 0 0.4 0 0.2 0 0.4 0.1 0.2 0.1 0.3 0.3 0.2 0.2 0.2 0.5v1.7h-0.5v-1.7q0-0.3-0.2-0.4-0.1-0.2-0.4-0.2-0.2 0-0.3 0.1-0.2 0.1-0.3 0.2 0 0.1 0 0.3v1.7zm4-2.3h-0.6v1.6q0 0.2 0.1 0.2 0 0.1 0.1 0.1 0 0 0.2 0h0.2v0.3q0 0.1-0.1 0.1-0.1 0-0.2 0-0.3 0-0.5-0.1-0.1-0.1-0.2-0.2 0-0.1 0-0.3v-1.7h-0.4v-0.3h0.4l0.1-0.8h0.3v0.8h0.6zm2.7 2.3q-0.5 0-0.8-0.4-0.3-0.3-0.3-1 0-0.4 0.1-0.7 0.2-0.3 0.4-0.4 0.2-0.2 0.6-0.2 0.2 0 0.3 0.1 0.2 0 0.3 0.1 0.1 0 0.1 0.1 0.1 0.1 0.1 0.2v-1.6h0.5v3.7h-0.4v-0.5q0 0.1-0.1 0.2 0 0.1-0.1 0.2-0.1 0.1-0.3 0.1-0.2 0.1-0.4 0.1zm0.1-0.4q0.4 0 0.6-0.2 0.1-0.2 0.1-0.8 0-0.3 0-0.5-0.1-0.2-0.3-0.3-0.1-0.1-0.4-0.1-0.3 0-0.5 0.2-0.2 0.2-0.2 0.7 0 0.5 0.2 0.8 0.2 0.2 0.5 0.2zm2.3-0.8q0 0.2 0.1 0.4 0.1 0.2 0.2 0.3 0.2 0.1 0.4 0.1 0.3 0 0.5-0.1 0.1-0.1 0.2-0.3h0.4q0 0.2-0.2 0.4-0.1 0.2-0.4 0.3-0.2 0.1-0.5 0.1-0.3 0-0.6-0.2-0.3-0.1-0.4-0.4-0.2-0.3-0.2-0.7 0-0.4 0.2-0.7 0.1-0.4 0.4-0.5 0.2-0.2 0.6-0.2 0.4 0 0.6 0.2 0.3 0.1 0.4 0.4 0.1 0.3 0.1 0.7v0.2zm0-0.4h1.4q0-0.2 0-0.4-0.1-0.1-0.3-0.2-0.1-0.1-0.3-0.1-0.3 0-0.4 0.1-0.2 0.1-0.3 0.3-0.1 0.1-0.1 0.3zm3.5 1.6q-0.5 0-0.8-0.4-0.3-0.3-0.3-1 0-0.4 0.1-0.7 0.1-0.3 0.3-0.4 0.3-0.2 0.6-0.2 0.2 0 0.4 0.1 0.1 0 0.2 0.1 0.1 0 0.2 0.1 0 0.1 0.1 0.2v-1.6h0.4v3.7h-0.3l-0.1-0.5q0 0.1 0 0.2-0.1 0.1-0.2 0.2-0.1 0.1-0.3 0.1-0.1 0.1-0.3 0.1zm0-0.4q0.4 0 0.6-0.2 0.2-0.2 0.2-0.8 0-0.3-0.1-0.5-0.1-0.2-0.2-0.3-0.2-0.1-0.4-0.1-0.4 0-0.6 0.2-0.2 0.2-0.2 0.7 0 0.5 0.2 0.8 0.2 0.2 0.5 0.2zm3 0.4q-0.3 0-0.4-0.1-0.2 0-0.3-0.1-0.2-0.1-0.3-0.3 0-0.2 0-0.4v-1.7h0.4v1.7q0 0.2 0.2 0.4 0.1 0.1 0.4 0.1 0.3 0 0.5-0.1 0.2-0.2 0.2-0.5v-1.6h0.4v2.5h-0.3l-0.1-0.5q0 0.2-0.1 0.4-0.1 0.1-0.3 0.1-0.2 0.1-0.3 0.1zm2.9-2.7q0.3 0 0.5 0.1 0.2 0.1 0.4 0.3 0.1 0.2 0.1 0.5h-0.4q0-0.2-0.1-0.3-0.1-0.1-0.2-0.2-0.1 0-0.3 0-0.3 0-0.5 0.2-0.3 0.3-0.3 0.8 0 0.4 0.2 0.7 0.2 0.2 0.6 0.2 0.2 0 0.3 0 0.1-0.1 0.2-0.2 0.1-0.1 0.1-0.3h0.4q0 0.3-0.1 0.5-0.2 0.2-0.4 0.3-0.2 0.1-0.5 0.1-0.4 0-0.6-0.2-0.3-0.1-0.4-0.4-0.2-0.3-0.2-0.7 0-0.4 0.1-0.8 0.2-0.3 0.4-0.4 0.3-0.2 0.7-0.2zm2.9 0.4h-0.6v1.6q0 0.1 0 0.2 0.1 0.1 0.1 0.1 0.1 0 0.2 0h0.3v0.3q0 0-0.1 0-0.1 0.1-0.3 0.1-0.2 0-0.4-0.1-0.1-0.1-0.2-0.2-0.1-0.2-0.1-0.4v-1.6h-0.4v-0.3h0.5l0.1-0.8h0.3v0.8h0.6zm0.9 1q0 0.3 0.1 0.5 0.1 0.2 0.2 0.3 0.2 0.1 0.5 0.1 0.2 0 0.4-0.1 0.2-0.1 0.2-0.4h0.5q-0.1 0.3-0.3 0.5-0.1 0.2-0.4 0.3-0.2 0-0.4 0-0.4 0.1-0.7-0.1-0.2-0.2-0.4-0.5-0.2-0.3-0.2-0.7 0-0.4 0.2-0.7 0.1-0.3 0.4-0.5 0.3-0.1 0.6-0.1 0.4 0 0.7 0.1 0.2 0.2 0.3 0.5 0.2 0.3 0.2 0.6v0.2zm0-0.3h1.4q0-0.2-0.1-0.4-0.1-0.2-0.2-0.3-0.2-0.1-0.4-0.1-0.3 0-0.4 0.1-0.2 0.1-0.3 0.3 0 0.2 0 0.4zm3.4 1.5q-0.5 0-0.8-0.3-0.3-0.3-0.3-1 0-0.4 0.1-0.7 0.1-0.3 0.4-0.5 0.2-0.1 0.6-0.1 0.1 0 0.3 0 0.1 0.1 0.2 0.1 0.1 0.1 0.2 0.2 0.1 0.1 0.1 0.1v-1.5h0.5v3.7h-0.4v-0.5q-0.1 0-0.1 0.1-0.1 0.1-0.2 0.2-0.1 0.1-0.2 0.2-0.2 0-0.4 0zm0.1-0.3q0.4 0 0.5-0.2 0.2-0.3 0.2-0.8 0-0.3-0.1-0.5-0.1-0.3-0.2-0.4-0.2-0.1-0.4-0.1-0.3 0-0.5 0.3-0.2 0.2-0.2 0.7 0 0.5 0.1 0.7 0.2 0.3 0.6 0.3zm4.5-2.3v0.4h-0.6v2.2h-0.5v-2.2h-0.5v-0.4h0.5v-0.4q0-0.3 0.2-0.5 0.2-0.1 0.5-0.1h0.5v0.3h-0.4q-0.2 0-0.2 0.1-0.1 0.1-0.1 0.3v0.3zm0.6 2.6v-2.6h0.4v0.5q0.1-0.2 0.2-0.3 0.1-0.1 0.3-0.2 0.1 0 0.3 0 0 0 0.1 0 0 0 0.1 0v0.4q-0.1 0-0.1 0-0.1 0-0.1 0-0.2 0-0.3 0-0.1 0.1-0.2 0.1-0.1 0.1-0.2 0.2-0.1 0.1-0.1 0.3v1.6zm2.9 0q-0.3 0-0.6-0.1-0.2-0.2-0.4-0.5-0.1-0.3-0.1-0.7 0-0.4 0.1-0.7 0.1-0.3 0.4-0.5 0.3-0.1 0.6-0.1 0.4 0 0.7 0.1 0.2 0.2 0.4 0.5 0.1 0.3 0.1 0.7 0 0.4-0.1 0.7-0.1 0.3-0.4 0.5-0.3 0.1-0.7 0.1zm0-0.3q0.3 0 0.4-0.1 0.2-0.1 0.3-0.4 0.1-0.2 0.1-0.5 0-0.3-0.1-0.5-0.1-0.2-0.2-0.3-0.2-0.2-0.5-0.2-0.2 0-0.4 0.1-0.1 0.2-0.2 0.4-0.1 0.2-0.1 0.5 0 0.3 0.1 0.5 0.1 0.2 0.2 0.4 0.2 0.1 0.4 0.1zm1.8 0.3v-2.6h0.5v0.4q0.1-0.2 0.3-0.3 0.2-0.1 0.5-0.1 0.1 0 0.2 0 0.2 0.1 0.3 0.2 0.1 0 0.2 0.2 0.1-0.2 0.3-0.3 0.2-0.1 0.5-0.1 0.1 0 0.3 0 0.1 0 0.2 0.2 0.2 0.1 0.2 0.2 0.1 0.2 0.1 0.5v1.7h-0.4v-1.6q0-0.3-0.1-0.4-0.1-0.1-0.2-0.2-0.1 0-0.3 0-0.1 0-0.2 0-0.2 0.1-0.3 0.2 0 0.1 0 0.3v1.7h-0.5v-1.8q0-0.1-0.1-0.2-0.1-0.1-0.2-0.2-0.1 0-0.2 0-0.2 0-0.3 0-0.1 0.1-0.2 0.2-0.1 0.1-0.1 0.3v1.7zm5.7 0.8q-0.2 0-0.3 0-0.1 0-0.1 0v-0.3h0.2q0.2 0 0.3-0.1 0.1 0 0.1 0 0.1-0.1 0.1-0.1 0.1-0.1 0.1-0.1l0.1-0.3-1-2.5h0.4l0.8 2 0.7-2h0.5l-1.1 2.8q-0.1 0.2-0.2 0.4-0.1 0.1-0.3 0.2-0.1 0-0.3 0zm3.3-0.8q-0.3 0-0.6-0.1-0.3-0.2-0.4-0.5-0.2-0.3-0.2-0.7 0-0.4 0.2-0.7 0.1-0.3 0.4-0.5 0.2-0.1 0.6-0.1 0.4 0 0.6 0.1 0.3 0.2 0.5 0.5 0.1 0.3 0.1 0.7 0 0.4-0.1 0.7-0.2 0.3-0.4 0.5-0.3 0.1-0.7 0.1zm0-0.3q0.3 0 0.4-0.1 0.2-0.1 0.3-0.4 0-0.2 0-0.5 0-0.3 0-0.5-0.1-0.2-0.3-0.3-0.1-0.2-0.4-0.2-0.2 0-0.4 0.1-0.1 0.2-0.2 0.4-0.1 0.2-0.1 0.5 0 0.3 0.1 0.5 0.1 0.2 0.2 0.4 0.2 0.1 0.4 0.1zm2.7 0.3q-0.2 0-0.4 0-0.1-0.1-0.3-0.2-0.1-0.1-0.2-0.2-0.1-0.2-0.1-0.4v-1.8h0.5v1.7q0 0.3 0.1 0.4 0.2 0.2 0.5 0.2 0.3 0 0.5-0.2 0.1-0.1 0.1-0.4v-1.7h0.5v2.6h-0.4v-0.5q-0.1 0.2-0.2 0.3-0.1 0.1-0.2 0.2-0.2 0.1-0.4 0zm2 0v-2.6h0.4v0.5q0.1-0.2 0.2-0.3 0.1-0.1 0.3-0.2 0.1 0 0.3 0 0 0 0.1 0 0 0 0.1 0v0.4q-0.1 0-0.1 0-0.1 0-0.1 0-0.2 0-0.3 0-0.2 0.1-0.3 0.1-0.1 0.1-0.1 0.2-0.1 0.1-0.1 0.3v1.6zm-83.2 7q-0.3 0.1-0.5 0-0.2-0.1-0.3-0.3-0.1-0.2-0.1-0.4 0-0.4 0.3-0.6 0.3-0.2 1-0.3h0.4v-0.2q0-0.2-0.1-0.4-0.1-0.1-0.4-0.1-0.3 0-0.4 0.1-0.2 0.1-0.3 0.3h-0.4q0.1-0.2 0.2-0.4 0.1-0.2 0.3-0.2 0.3-0.1 0.6-0.1 0.3 0 0.5 0.1 0.3 0.1 0.4 0.2 0.1 0.2 0.1 0.5v1.8h-0.4v-0.5q-0.2 0.3-0.4 0.4-0.3 0.2-0.5 0.1zm0.1-0.3q0.1 0 0.3 0 0.1-0.1 0.2-0.2 0.1 0 0.2-0.1 0-0.1 0-0.3v-0.4h-0.3q-0.3 0-0.5 0.1-0.2 0-0.3 0.1-0.1 0.2-0.1 0.4 0 0.2 0.1 0.3 0.2 0.1 0.4 0.1zm3-2.3q0.3 0 0.5 0.1 0.2 0.1 0.4 0.3 0.1 0.2 0.1 0.4h-0.4q0-0.1-0.1-0.2 0-0.1-0.2-0.2-0.1-0.1-0.3-0.1-0.3 0-0.5 0.3-0.2 0.2-0.2 0.7 0 0.5 0.2 0.7 0.1 0.3 0.5 0.3 0.2 0 0.3-0.1 0.2 0 0.2-0.2 0.1-0.1 0.1-0.2h0.4q0 0.3-0.1 0.5-0.2 0.1-0.4 0.2-0.2 0.2-0.5 0.1-0.3 0-0.6-0.1-0.3-0.2-0.4-0.5-0.2-0.2-0.2-0.7 0-0.4 0.2-0.7 0.1-0.3 0.4-0.5 0.2-0.1 0.6-0.1zm2.7 0q0.3 0 0.5 0.1 0.2 0.1 0.4 0.3 0.1 0.2 0.1 0.4h-0.4q0-0.1-0.1-0.2-0.1-0.1-0.2-0.2-0.1-0.1-0.3-0.1-0.3 0-0.5 0.3-0.2 0.2-0.2 0.7 0 0.5 0.1 0.7 0.2 0.3 0.6 0.3 0.2 0 0.3-0.1 0.2 0 0.2-0.2 0.1-0.1 0.1-0.2h0.4q0 0.3-0.1 0.5-0.2 0.1-0.4 0.2-0.2 0.2-0.5 0.1-0.3 0-0.6-0.1-0.3-0.2-0.4-0.5-0.2-0.2-0.2-0.7 0-0.4 0.2-0.7 0.1-0.3 0.4-0.5 0.2-0.1 0.6-0.1zm2.7 2.6q-0.4 0-0.6-0.1-0.3-0.2-0.4-0.5-0.2-0.3-0.2-0.7 0-0.4 0.1-0.7 0.2-0.3 0.4-0.5 0.3-0.1 0.7-0.1 0.4 0 0.6 0.1 0.3 0.2 0.4 0.5 0.2 0.3 0.2 0.7 0 0.4-0.2 0.7-0.1 0.3-0.4 0.5-0.2 0.1-0.6 0.1zm0-0.3q0.2 0 0.4-0.1 0.1-0.1 0.2-0.4 0.1-0.2 0.1-0.5 0-0.3-0.1-0.5 0-0.2-0.2-0.3-0.1-0.2-0.4-0.2-0.2 0-0.4 0.1-0.2 0.2-0.2 0.4-0.1 0.2-0.1 0.5 0 0.3 0 0.5 0.1 0.2 0.3 0.4 0.1 0.1 0.4 0.1zm2.7 0.3q-0.2 0-0.4 0-0.2-0.1-0.3-0.2-0.2-0.1-0.2-0.2-0.1-0.2-0.1-0.4v-1.8h0.5v1.7q0 0.3 0.1 0.4 0.2 0.2 0.5 0.2 0.3 0 0.4-0.2 0.2-0.1 0.2-0.4v-1.7h0.5v2.6h-0.4v-0.5q-0.1 0.2-0.2 0.3-0.1 0.1-0.3 0.2-0.1 0.1-0.3 0zm1.9 0v-2.6h0.5v0.4q0-0.1 0.1-0.2 0.2-0.1 0.3-0.2 0.2 0 0.4 0 0.2 0 0.4 0.1 0.2 0.1 0.4 0.3 0.1 0.2 0.1 0.5v1.7h-0.5v-1.6q0-0.3-0.1-0.5-0.2-0.1-0.4-0.1-0.2 0-0.4 0-0.1 0.1-0.2 0.2-0.1 0.1-0.1 0.3v1.7zm4.1-2.2h-0.6v1.6q0 0.1 0 0.2 0 0 0.1 0 0.1 0.1 0.2 0.1h0.3v0.3q-0.1 0-0.2 0-0.1 0-0.2 0-0.3 0-0.4-0.1-0.2 0-0.2-0.2-0.1-0.1-0.1-0.3v-1.6h-0.4v-0.4h0.4l0.1-0.7h0.4v0.7h0.6zm2.3-0.3v2.6h-0.5v-2.6zm0-1.1v0.5h-0.4v-0.5zm1.7 3.7q-0.3 0-0.5-0.1-0.2-0.1-0.4-0.2-0.1-0.2-0.2-0.5h0.4q0.1 0.2 0.2 0.3 0.1 0.1 0.2 0.1 0.1 0.1 0.3 0.1 0.3 0 0.4-0.1 0.2-0.1 0.2-0.3 0-0.2-0.1-0.3-0.1 0-0.3-0.1l-0.5-0.1q-0.3-0.1-0.5-0.3-0.2-0.1-0.2-0.4 0-0.2 0.1-0.4 0.1-0.2 0.3-0.3 0.3-0.1 0.6-0.1 0.4 0 0.7 0.2 0.2 0.2 0.2 0.6h-0.4q0-0.2-0.1-0.3-0.2-0.1-0.4-0.1-0.3 0-0.4 0.1-0.2 0.1-0.2 0.3 0 0.1 0.1 0.2 0.1 0.1 0.4 0.1l0.5 0.1q0.2 0.1 0.3 0.2 0.1 0.1 0.2 0.1 0 0.1 0.1 0.2 0 0.1 0 0.2 0 0.3-0.1 0.5-0.1 0.1-0.4 0.2-0.2 0.1-0.5 0.1zm5.6-1.4q0 0.4-0.1 0.7-0.2 0.4-0.5 0.5-0.3 0.2-0.8 0.2-0.6 0-0.9-0.2-0.3-0.1-0.4-0.5-0.2-0.3-0.2-0.7v-2.3h0.8v2.3q0 0.4 0.2 0.6 0.1 0.2 0.5 0.2 0.2 0 0.3-0.1 0.2-0.1 0.3-0.2 0.1-0.2 0.1-0.5v-2.3h0.7zm2.1 1.5q-0.3 0-0.5-0.1-0.3-0.1-0.5-0.2-0.2-0.1-0.4-0.3-0.1-0.2-0.1-0.5h0.7q0.1 0.2 0.2 0.3 0.1 0.1 0.2 0.1 0.2 0.1 0.4 0.1 0.2 0 0.4-0.1 0.1 0 0.2-0.1 0.1-0.1 0.1-0.3 0-0.1-0.1-0.2 0-0.1-0.2-0.1-0.1-0.1-0.3-0.1l-0.6-0.1q-0.4-0.1-0.7-0.4-0.2-0.2-0.2-0.6 0-0.4 0.2-0.6 0.1-0.3 0.5-0.4 0.3-0.1 0.7-0.1 0.4 0 0.8 0.1 0.3 0.2 0.4 0.4 0.2 0.3 0.2 0.6h-0.7q0-0.2-0.1-0.3-0.1-0.2-0.3-0.2-0.1-0.1-0.3-0.1-0.2 0-0.3 0.1-0.1 0-0.2 0.1-0.1 0-0.1 0.1-0.1 0.1-0.1 0.2 0 0.1 0.2 0.2 0.1 0.1 0.3 0.2l0.7 0.1q0.3 0.1 0.5 0.2 0.2 0.1 0.3 0.3 0.1 0.2 0.1 0.3 0.1 0.2 0.1 0.3 0 0.3-0.2 0.6-0.2 0.2-0.5 0.3-0.4 0.2-0.8 0.2zm3.5-0.3q-0.4-0.3-0.5-0.8h0.8q0 0.2 0.2 0.4 0.2 0.1 0.5 0.1 0.2 0 0.3-0.1 0.2 0 0.3-0.1 0-0.1 0-0.3 0-0.2-0.1-0.3-0.1-0.1-0.4-0.1l-0.6-0.1q-0.4-0.1-0.6-0.4-0.3-0.2-0.3-0.6 0-0.4 0.2-0.6 0.2-0.3 0.5-0.4 0.2-0.1 0.4-0.1v-0.5h0.6v0.5q0.3 0 0.4 0.1 0.3 0.2 0.5 0.4 0.2 0.2 0.1 0.5l-0.7 0.1q0-0.3-0.1-0.4-0.2-0.2-0.5-0.2-0.1 0-0.2 0.1-0.1 0-0.2 0.1-0.1 0-0.2 0.1 0 0.1 0 0.2 0 0.1 0.1 0.2 0.1 0.1 0.4 0.2l0.6 0.1q0.5 0.2 0.7 0.4 0.2 0.3 0.2 0.7 0 0.4-0.2 0.6-0.1 0.2-0.4 0.3-0.2 0.1-0.5 0.2v0.4h-0.6v-0.4q-0.4-0.1-0.7-0.3zm3.5 0.2v-2.7h-0.6v-0.4q0.3 0 0.5-0.1 0.2 0 0.3-0.1 0.1-0.1 0.1-0.3h0.5v3.6zm2.9-3.6q0.6 0 1 0.4 0.3 0.5 0.3 1.4 0 0.9-0.3 1.4-0.4 0.5-1 0.5-0.7 0-1.1-0.5-0.3-0.5-0.3-1.4 0-0.6 0.1-1 0.2-0.4 0.5-0.6 0.3-0.2 0.8-0.2zm0 3.1q0.3 0 0.4-0.3 0.2-0.3 0.2-1 0-0.7-0.2-1-0.1-0.3-0.5-0.3-0.3 0-0.4 0.3-0.2 0.3-0.2 1 0 0.7 0.2 1 0.1 0.3 0.5 0.3zm3.4-3.1h0.7v2.2h0.6v0.6h-0.6v0.8h-0.7v-0.8h-1.6v-0.6zm-1 2.2h1v-1.3zm2.6 1.4v-0.8h0.8v0.8zm2.7 0.1q-0.4 0-0.7-0.2-0.3-0.1-0.4-0.3-0.2-0.3-0.3-0.6h0.7q0.1 0.2 0.2 0.4 0.2 0.1 0.4 0.1 0.3 0 0.5-0.1 0.2-0.2 0.3-0.4 0.1-0.3 0-0.7 0 0.1-0.1 0.2-0.2 0.1-0.3 0.2-0.2 0-0.4 0-0.4 0-0.7-0.1-0.2-0.2-0.4-0.4-0.2-0.3-0.2-0.6 0-0.4 0.2-0.7 0.2-0.2 0.5-0.4 0.3-0.2 0.7-0.2 0.5 0 0.8 0.3 0.3 0.2 0.5 0.6 0.2 0.4 0.2 0.9 0 0.7-0.2 1.1-0.2 0.4-0.5 0.7-0.4 0.2-0.8 0.2zm0-2q0.2 0 0.3 0 0.2-0.1 0.3-0.2 0-0.1 0-0.2 0.1-0.3 0-0.4-0.1-0.2-0.2-0.3-0.2-0.1-0.4-0.1-0.1 0-0.3 0.1-0.1 0.1-0.2 0.2-0.1 0.1-0.1 0.3 0 0.3 0.2 0.5 0.2 0.1 0.4 0.1zm3.3-1.8q0.7 0 1 0.5 0.4 0.5 0.4 1.4 0 0.9-0.4 1.4-0.3 0.5-1 0.5-0.6 0-1-0.5-0.4-0.5-0.4-1.4 0-0.6 0.2-1 0.2-0.4 0.5-0.6 0.3-0.3 0.7-0.3zm0 3.2q0.3 0 0.5-0.3 0.1-0.3 0.1-1 0-0.7-0.1-1-0.2-0.3-0.5-0.3-0.3 0-0.5 0.3-0.1 0.3-0.1 1 0 0.7 0.1 1 0.2 0.3 0.5 0.3zm1.9 0.5v-0.6h0.5v0.6z"/>
			<path id="Layer" fill-rule="evenodd" class="s9" d="m20.2 93.2v-1.5l-1.2-2h0.8l0.8 1.4 0.8-1.4h0.7l-1.2 2v1.5zm2.7-0.1q-0.3-0.1-0.4-0.4-0.2-0.3-0.2-0.7 0-0.4 0.2-0.7 0.1-0.3 0.4-0.5 0.3-0.1 0.6-0.1 0.4-0.1 0.7 0.1 0.3 0.2 0.4 0.5 0.1 0.3 0.1 0.7 0 0.4-0.1 0.7-0.1 0.2-0.4 0.4-0.3 0.2-0.7 0.2-0.3 0-0.6-0.2zm0.3-0.5q0.1 0.1 0.3 0.1 0.2 0 0.3-0.1 0.2-0.1 0.2-0.3 0.1-0.1 0.1-0.3 0-0.2-0.1-0.4 0-0.2-0.1-0.3-0.2-0.1-0.4-0.1-0.1 0-0.3 0.1-0.1 0.1-0.1 0.3-0.1 0.1-0.1 0.4 0 0.2 0.1 0.3 0 0.2 0.1 0.3zm2.6 0.6q-0.2 0-0.3-0.1-0.2-0.1-0.2-0.3-0.1-0.1-0.1-0.4v-1.7h0.7v1.7q0 0.1 0.1 0.2 0.1 0.2 0.3 0.2 0.2 0 0.4-0.2 0.1-0.1 0.1-0.3v-1.6h0.7v2.5h-0.6v-0.5q-0.1 0.2-0.2 0.4-0.1 0.1-0.3 0.1-0.1 0.1-0.3 0.1-0.1 0-0.3-0.1zm2.9-1.4v1.4h-0.7v-2.5h0.7v0.6q0.1-0.2 0.2-0.3 0.1-0.2 0.3-0.3 0.1-0.1 0.3 0 0-0.1 0.1 0 0 0 0 0v0.6q0 0 0 0-0.1 0-0.1 0-0.2 0-0.3 0-0.2 0.1-0.3 0.1-0.1 0.1-0.1 0.2-0.1 0.1-0.1 0.2zm2.2 1.4l1.2-3.5h0.7l1.3 3.5h-0.7l-0.3-0.8h-1.2l-0.3 0.8zm1.1-1.4h0.9l-0.4-1.4zm2.5 2.2v-3.3h0.7v0.4q0.1-0.1 0.1-0.2 0.1-0.1 0.2-0.1 0.1-0.1 0.2-0.1 0.2-0.1 0.3-0.1 0.3 0 0.5 0.2 0.2 0.1 0.3 0.4 0.1 0.3 0.1 0.7 0 0.5-0.1 0.8-0.1 0.3-0.4 0.4-0.2 0.2-0.5 0.2-0.1 0-0.2-0.1-0.1 0-0.2-0.1-0.1 0-0.2-0.1 0-0.1-0.1-0.2v1.2zm0.9-1.4q0.2 0.1 0.3 0.1 0.3 0 0.4-0.1 0.2-0.2 0.2-0.7 0-0.3-0.2-0.5-0.1-0.2-0.4-0.2-0.2 0-0.4 0.2-0.1 0.2-0.1 0.5 0 0.3 0.1 0.4 0 0.2 0.1 0.3zm2 1.4v-3.3h0.7v0.4q0.1-0.1 0.2-0.2 0-0.1 0.1-0.1 0.1-0.1 0.2-0.1 0.2-0.1 0.3-0.1 0.3 0 0.5 0.2 0.2 0.1 0.3 0.4 0.1 0.3 0.1 0.7 0 0.5-0.1 0.8-0.1 0.3-0.4 0.4-0.2 0.2-0.5 0.2-0.1 0-0.2-0.1-0.1 0-0.2-0.1-0.1 0-0.2-0.1 0-0.1-0.1-0.2v1.2zm1-1.4q0.1 0.1 0.3 0.1 0.2 0 0.3-0.1 0.2-0.2 0.2-0.7 0-0.3-0.2-0.5-0.1-0.2-0.3-0.2-0.3 0-0.5 0.2-0.1 0.2-0.1 0.5 0 0.3 0.1 0.4 0 0.2 0.2 0.3z"/>
			<path id="Layer" fill-rule="evenodd" class="s10" d="m89.6 93.2q-0.2 0.1-0.5 0.1-0.2 0-0.3-0.1-0.2 0-0.3 0l0.1-0.5q0 0.1 0.1 0.1 0.1 0 0.3 0 0.2 0 0.3-0.1 0.1-0.1 0.1-0.4v-2.6h0.4v2.7q0 0.3 0 0.5-0.1 0.2-0.2 0.3zm2.2 0q-0.1 0.1-0.3 0.1-0.2 0-0.4-0.1-0.1 0-0.3-0.1-0.1-0.2-0.2-0.3-0.1-0.2-0.1-0.4v-1.7h0.5v1.7q0 0.2 0.1 0.4 0.2 0.1 0.5 0.1 0.3 0 0.4-0.1 0.2-0.2 0.2-0.5v-1.6h0.4v2.5h-0.3l-0.1-0.5q0 0.2-0.1 0.4-0.1 0.1-0.3 0.1zm1.9 0q-0.2-0.1-0.3-0.3-0.2-0.1-0.2-0.4h0.4q0 0.1 0.1 0.2 0.1 0.1 0.2 0.2 0.2 0 0.3 0 0.3 0 0.4-0.1 0.2-0.1 0.2-0.2 0-0.2-0.1-0.3-0.1-0.1-0.3-0.1l-0.5-0.1q-0.3-0.1-0.5-0.3-0.1-0.1-0.1-0.4 0-0.2 0.1-0.4 0.1-0.2 0.3-0.3 0.2 0 0.5 0 0.4 0 0.7 0.1 0.2 0.2 0.2 0.6h-0.4q0-0.2-0.1-0.3-0.2-0.1-0.4-0.1-0.2 0-0.4 0.1-0.1 0.1-0.1 0.3 0 0.1 0.1 0.2 0.1 0.1 0.3 0.1l0.5 0.1q0.2 0.1 0.3 0.2 0.1 0 0.2 0.1 0 0.1 0 0.2 0.1 0.1 0.1 0.2 0 0.3-0.1 0.4-0.2 0.2-0.4 0.3-0.2 0.1-0.5 0.1-0.2 0-0.5-0.1zm3.3 0q-0.1 0-0.3 0-0.2 0-0.4 0-0.1-0.1-0.2-0.2 0-0.2 0-0.4v-1.6h-0.4v-0.3h0.4l0.1-0.7h0.3v0.7h0.6v0.3h-0.6v1.6q0 0.1 0.1 0.2 0 0.1 0.1 0.1 0 0 0.1 0h0.3v0.3q0 0-0.1 0zm1.9 0v-3.5h0.5l1.8 2.7v-2.7h0.4v3.5h-0.3l-1.9-2.8v2.8zm5.1-0.1q-0.2 0.2-0.6 0.2-0.3 0-0.6-0.2-0.2-0.1-0.4-0.4-0.1-0.3-0.1-0.7 0-0.4 0.1-0.7 0.1-0.3 0.4-0.5 0.2-0.1 0.6-0.1 0.4 0 0.6 0.1 0.3 0.2 0.4 0.5 0.1 0.2 0.1 0.7 0 0.4-0.1 0.7-0.1 0.2-0.4 0.4zm-0.2-0.3q0.1-0.1 0.2-0.3 0.1-0.2 0.1-0.5 0-0.3-0.1-0.5 0-0.2-0.2-0.4-0.1-0.1-0.4-0.1-0.2 0-0.4 0.1-0.1 0.1-0.2 0.3-0.1 0.3-0.1 0.6 0 0.2 0.1 0.4 0.1 0.3 0.2 0.4 0.2 0.1 0.4 0.1 0.2 0 0.4-0.1zm2.8-1.4l-0.5 1.8h-0.4l-0.8-2.5h0.4l0.6 1.9 0.6-1.9h0.3l0.6 1.9 0.6-1.9h0.4l-0.7 2.5h-0.5z"/>
		</g>
	</g>
</svg>